<?xml version="1.0" standalone="no"?>
<!DOCTYPE svg PUBLIC "-//W3C//DTD SVG 20010904//EN"
 "http://www.w3.org/TR/2001/REC-SVG-20010904/DTD/svg10.dtd">
<svg version="1.0" xmlns="http://www.w3.org/2000/svg"
 width="512.000000pt" height="512.000000pt" viewBox="0 0 512.000000 512.000000"
 preserveAspectRatio="xMidYMid meet">
<metadata>
Created by potrace 1.11, written by Peter Selinger 2001-2013
</metadata>
<g transform="translate(0.000000,512.000000) scale(0.100000,-0.100000)"
fill="#000000" stroke="none">
<path d="M3695 4149 c-22 -4 -55 -10 -74 -14 -47 -8 -174 -54 -316 -113 -66
-27 -327 -136 -580 -241 -253 -106 -485 -203 -515 -216 -30 -13 -246 -103
-480 -200 -234 -97 -479 -199 -545 -227 -66 -27 -158 -66 -205 -85 -47 -20
-98 -41 -115 -48 -16 -8 -138 -58 -270 -113 -132 -55 -252 -105 -267 -112 -54
-25 -54 -26 -53 -580 l0 -511 -50 1 c-145 4 -165 1 -196 -29 l-29 -29 3 -311
c2 -308 2 -311 25 -333 l23 -23 2509 0 2509 0 23 23 c23 22 23 25 26 333 l3
310 -30 29 c-29 29 -31 30 -138 30 -59 1 -849 1 -1754 1 l-1647 1 1 179 c1
151 4 180 17 183 8 3 629 5 1380 5 751 0 1389 0 1418 0 45 1 58 5 83 30 l29
29 0 490 0 489 143 43 c254 77 252 74 172 302 -104 298 -275 497 -531 619
-131 63 -247 90 -399 93 -71 2 -148 0 -170 -5z"/>
</g>
</svg>
